<?xml version="1.0" encoding="UTF-8"?>
<!DOCTYPE svg PUBLIC "-//W3C//DTD SVG 1.1//EN" "http://www.w3.org/Graphics/SVG/1.1/DTD/svg11.dtd">
<svg xmlns="http://www.w3.org/2000/svg" xmlns:xlink="http://www.w3.org/1999/xlink" version="1.1" width="917" height="260" viewBox="-0.5 -0.5 917 260" style="background-color: rgb(255, 255, 255);"><defs><clipPath id="mx-clip-194-31-152-134-0"><rect x="194" y="31" width="152" height="134"/></clipPath><clipPath id="mx-clip-194-173-152-82-0"><rect x="194" y="173" width="152" height="82"/></clipPath><clipPath id="mx-clip-384-31-152-114-0"><rect x="384" y="31" width="152" height="114"/></clipPath><clipPath id="mx-clip-384-153-152-82-0"><rect x="384" y="153" width="152" height="82"/></clipPath><clipPath id="mx-clip-574-31-152-84-0"><rect x="574" y="31" width="152" height="84"/></clipPath><clipPath id="mx-clip-574-123-152-82-0"><rect x="574" y="123" width="152" height="82"/></clipPath><clipPath id="mx-clip-754-31-152-84-0"><rect x="754" y="31" width="152" height="84"/></clipPath><clipPath id="mx-clip-754-123-152-82-0"><rect x="754" y="123" width="152" height="82"/></clipPath><clipPath id="mx-clip-4-31-152-134-0"><rect x="4" y="31" width="152" height="134"/></clipPath><clipPath id="mx-clip-4-173-152-82-0"><rect x="4" y="173" width="152" height="82"/></clipPath><filter id="dropShadow"><feGaussianBlur in="SourceAlpha" stdDeviation="1.7" result="blur"/><feOffset in="blur" dx="3" dy="3" result="offsetBlur"/><feFlood flood-color="#3D4574" flood-opacity="0.4" result="offsetColor"/><feComposite in="offsetColor" in2="offsetBlur" operator="in" result="offsetBlur"/><feBlend in="SourceGraphic" in2="offsetBlur"/></filter></defs><g filter="url(#dropShadow)"><path d="M 190 26 L 190 0 L 350 0 L 350 26" fill="#ffffff" stroke="#000000" stroke-miterlimit="10" pointer-events="all"/><path d="M 190 26 L 190 250 L 350 250 L 350 26" fill="none" stroke="#000000" stroke-miterlimit="10" pointer-events="none"/><path d="M 190 26 L 350 26" fill="none" stroke="#000000" stroke-miterlimit="10" pointer-events="none"/><g fill="#000000" font-family="Helvetica" font-weight="bold" pointer-events="none" text-anchor="middle" font-size="12px"><text x="269.5" y="17.5">Livestock</text></g><g fill="#000000" font-family="Helvetica" pointer-events="none" clip-path="url(#mx-clip-194-31-152-134-0)" font-size="12px"><text x="195.5" y="43.5">-id: int</text><text x="195.5" y="57.5">-name: string</text><text x="195.5" y="71.5">-type: string</text><text x="195.5" y="85.5">-dateofInjection: string</text><text x="195.5" y="99.5">-dueDate: string</text><text x="195.5" y="113.5">-buyer: string</text><text x="195.5" y="127.5">-dateSold: string</text><text x="195.5" y="141.5">-datePurchased: string</text><text x="195.5" y="155.5">-stock: int</text></g><path d="M 190 164 L 350 164" fill="none" stroke="#000000" stroke-miterlimit="10" pointer-events="none"/><g fill="#000000" font-family="Helvetica" pointer-events="none" clip-path="url(#mx-clip-194-173-152-82-0)" font-size="12px"><text x="195.5" y="185.5">+addStock()</text><text x="195.5" y="199.5">+updateStock()</text><text x="195.5" y="213.5">+deleteStock()</text><text x="195.5" y="227.5">+displayStock()</text></g><path d="M 380 26 L 380 0 L 540 0 L 540 26" fill="#ffffff" stroke="#000000" stroke-miterlimit="10" pointer-events="none"/><path d="M 380 26 L 380 230 L 540 230 L 540 26" fill="none" stroke="#000000" stroke-miterlimit="10" pointer-events="none"/><path d="M 380 26 L 540 26" fill="none" stroke="#000000" stroke-miterlimit="10" pointer-events="none"/><g fill="#000000" font-family="Helvetica" font-weight="bold" pointer-events="none" text-anchor="middle" font-size="12px"><text x="459.5" y="17.5">Plantation</text></g><g fill="#000000" font-family="Helvetica" pointer-events="none" clip-path="url(#mx-clip-384-31-152-114-0)" font-size="12px"><text x="385.5" y="43.5">-id: int</text><text x="385.5" y="57.5">-name: string</text><text x="385.5" y="71.5">-type: string</text><text x="385.5" y="85.5">-datePurchased: string</text><text x="385.5" y="99.5">-cosBred: string</text><text x="385.5" y="113.5">-fullyGrown: string</text><text x="385.5" y="127.5">-buyer: string</text><text x="385.5" y="141.5">-dateSold: string</text></g><path d="M 380 144 L 540 144" fill="none" stroke="#000000" stroke-miterlimit="10" pointer-events="none"/><g fill="#000000" font-family="Helvetica" pointer-events="none" clip-path="url(#mx-clip-384-153-152-82-0)" font-size="12px"><text x="385.5" y="165.5">+addPlant()</text><text x="385.5" y="179.5">+updatePlant()</text><text x="385.5" y="193.5">+deletePLant()</text><text x="385.5" y="207.5">+displayPlant()</text></g><path d="M 570 26 L 570 0 L 730 0 L 730 26" fill="#ffffff" stroke="#000000" stroke-miterlimit="10" pointer-events="none"/><path d="M 570 26 L 570 200 L 730 200 L 730 26" fill="none" stroke="#000000" stroke-miterlimit="10" pointer-events="none"/><path d="M 570 26 L 730 26" fill="none" stroke="#000000" stroke-miterlimit="10" pointer-events="none"/><g fill="#000000" font-family="Helvetica" font-weight="bold" pointer-events="none" text-anchor="middle" font-size="12px"><text x="649.5" y="17.5">Equipment</text></g><g fill="#000000" font-family="Helvetica" pointer-events="none" clip-path="url(#mx-clip-574-31-152-84-0)" font-size="12px"><text x="575.5" y="43.5">-id: int</text><text x="575.5" y="57.5">-name: string</text><text x="575.5" y="71.5">-type: string</text><text x="575.5" y="85.5">-datePurchased: string</text><text x="575.5" y="99.5">-description: string</text></g><path d="M 570 114 L 730 114" fill="none" stroke="#000000" stroke-miterlimit="10" pointer-events="none"/><g fill="#000000" font-family="Helvetica" pointer-events="none" clip-path="url(#mx-clip-574-123-152-82-0)" font-size="12px"><text x="575.5" y="135.5">+addEquipment()</text><text x="575.5" y="149.5">+updateEquipment()</text><text x="575.5" y="163.5">+deleteEquipment()</text><text x="575.5" y="177.5">+displayEquipment()</text></g><path d="M 750 26 L 750 0 L 910 0 L 910 26" fill="#ffffff" stroke="#000000" stroke-miterlimit="10" pointer-events="none"/><path d="M 750 26 L 750 200 L 910 200 L 910 26" fill="none" stroke="#000000" stroke-miterlimit="10" pointer-events="none"/><path d="M 750 26 L 910 26" fill="none" stroke="#000000" stroke-miterlimit="10" pointer-events="none"/><g fill="#000000" font-family="Helvetica" font-weight="bold" pointer-events="none" text-anchor="middle" font-size="12px"><text x="829.5" y="17.5">Tasks</text></g><g fill="#000000" font-family="Helvetica" pointer-events="none" clip-path="url(#mx-clip-754-31-152-84-0)" font-size="12px"><text x="755.5" y="43.5">-id: int</text><text x="755.5" y="57.5">-name: string</text><text x="755.5" y="71.5">-type: string</text><text x="755.5" y="85.5">-date: string</text><text x="755.5" y="99.5">-description: string</text></g><path d="M 750 114 L 910 114" fill="none" stroke="#000000" stroke-miterlimit="10" pointer-events="none"/><g fill="#000000" font-family="Helvetica" pointer-events="none" clip-path="url(#mx-clip-754-123-152-82-0)" font-size="12px"><text x="755.5" y="135.5">+addTasks()</text><text x="755.5" y="149.5">+updateTasks()</text><text x="755.5" y="163.5">+deleteTasks()</text><text x="755.5" y="177.5">+displayTasks()</text></g><path d="M 0 26 L 0 0 L 160 0 L 160 26" fill="#ffffff" stroke="#000000" stroke-miterlimit="10" pointer-events="none"/><path d="M 0 26 L 0 250 L 160 250 L 160 26" fill="none" stroke="#000000" stroke-miterlimit="10" pointer-events="none"/><path d="M 0 26 L 160 26" fill="none" stroke="#000000" stroke-miterlimit="10" pointer-events="none"/><g fill="#000000" font-family="Helvetica" font-weight="bold" pointer-events="none" text-anchor="middle" font-size="12px"><text x="79.5" y="17.5">User</text></g><g fill="#000000" font-family="Helvetica" pointer-events="none" clip-path="url(#mx-clip-4-31-152-134-0)" font-size="12px"><text x="5.5" y="43.5">-id: int</text><text x="5.5" y="57.5">-name: string</text><text x="5.5" y="71.5">-type: string</text><text x="5.5" y="85.5">-dateofInjection: string</text><text x="5.5" y="99.5">-dueDate: string</text><text x="5.5" y="113.5">-buyer: string</text><text x="5.5" y="127.5">-dateSold: string</text><text x="5.5" y="141.5">-datePurchased: string</text><text x="5.5" y="155.5">-stock: int</text></g><path d="M 0 164 L 160 164" fill="none" stroke="#000000" stroke-miterlimit="10" pointer-events="none"/><g fill="#000000" font-family="Helvetica" pointer-events="none" clip-path="url(#mx-clip-4-173-152-82-0)" font-size="12px"><text x="5.5" y="185.5">+addStock()</text><text x="5.5" y="199.5">+editStock()</text><text x="5.5" y="213.5">+updateStock()</text><text x="5.5" y="227.5">+deleteStock()</text><text x="5.5" y="241.5">+displayStock()</text></g></g></svg>